<?xml version="1.0" encoding="utf-8"?>
<!-- Generator: Adobe Illustrator 28.0.0, SVG Export Plug-In . SVG Version: 6.00 Build 0)  -->
<svg version="1.1" id="Layer_1" xmlns="http://www.w3.org/2000/svg" xmlns:xlink="http://www.w3.org/1999/xlink" x="0px" y="0px"
	 viewBox="0 0 1280 1024" style="enable-background:new 0 0 1280 1024;" xml:space="preserve">
<style type="text/css">
	.st0{fill:#F4CEDF;stroke:#E7003B;stroke-width:12;stroke-miterlimit:10;}
	.st1{fill:#E7003B;}
	.st2{fill:none;stroke:#E7003B;stroke-width:12;stroke-miterlimit:10;}
</style>
<path class="st0" d="M871.95,247.32c7.68-124.01-93.3-229.81-216.64-229.81s-224.33,105.8-216.64,229.81"/>
<path class="st0" d="M866,243c9.87-2.99,222.57-74.95,285.13,129.63c0,0,75.15,207.42-144.3,275.95c0,0,147.66,170.53-3,295.22
	c-174.35,144.29-318.65,21.04-351.71-57.12c0,0-102.21,207.42-318.65,84.17c0,0-180.37-123.25-39.08-318.65
	c0,0-192.39-63.13-147.3-264.54S435,244,435,244l-0.57-1.34L436,246"/>
<circle class="st1" cx="647.17" cy="539.47" r="43.59"/>
<circle class="st1" cx="648.67" cy="222.33" r="18.04"/>
<circle class="st1" cx="747.87" cy="324.54" r="18.04"/>
<circle class="st1" cx="826.03" cy="381.65" r="18.04"/>
<circle class="st1" cx="958.18" cy="444.91" r="18.04"/>
<circle class="st1" cx="883.02" cy="571.17" r="18.04"/>
<circle class="st1" cx="847.08" cy="664.23" r="18.04"/>
<circle class="st1" cx="835.05" cy="802.51" r="18.04"/>
<circle class="st1" cx="695.27" cy="767.94" r="18.04"/>
<circle class="st1" cx="600.57" cy="769.44" r="18.04"/>
<circle class="st1" cx="447.26" cy="790.48" r="18.04"/>
<circle class="st1" cx="438.24" cy="658.22" r="18.04"/>
<circle class="st1" cx="408.18" cy="556.01" r="18.04"/>
<circle class="st1" cx="342.05" cy="432.76" r="18.04"/>
<circle class="st1" cx="474.32" cy="375.64" r="18.04"/>
<circle class="st1" cx="559.8" cy="329.18" r="18.04"/>
<line class="st2" x1="648.67" y1="240.37" x2="648.67" y2="495.89"/>
<line class="st2" x1="741.86" y1="339.57" x2="660.7" y2="501.9"/>
<line class="st2" x1="814.01" y1="393.68" x2="675.73" y2="510.92"/>
<line class="st2" x1="940.26" y1="447.79" x2="687.75" y2="525.95"/>
<line class="st2" x1="865.11" y1="568.03" x2="687.75" y2="546.99"/>
<line class="st2" x1="832.04" y1="655.21" x2="681.74" y2="559.01"/>
<line class="st2" x1="826.03" y1="787.48" x2="672.72" y2="574.04"/>
<line class="st2" x1="826.03" y1="787.48" x2="672.72" y2="574.04"/>
<line class="st2" x1="690.76" y1="751.4" x2="657.69" y2="577.05"/>
<line class="st2" x1="602.93" y1="751.37" x2="639.65" y2="571.04"/>
<line class="st2" x1="456.28" y1="775.45" x2="618.61" y2="571.04"/>
<line class="st2" x1="453.27" y1="649.2" x2="609.59" y2="559.01"/>
<line class="st2" x1="426.43" y1="553.98" x2="606.59" y2="543.99"/>
<line class="st2" x1="360.09" y1="438.77" x2="609.59" y2="522.94"/>
<line class="st2" x1="489.35" y1="387.67" x2="618.61" y2="507.91"/>
<line class="st2" x1="567.51" y1="342.57" x2="630.64" y2="498.89"/>
</svg>
